<svg version="1.1" id="Layer_1" xmlns="http://www.w3.org/2000/svg" xmlns:xlink="http://www.w3.org/1999/xlink" x="0px" y="0px"
	 width="100%" viewBox="0 0 135 108" enable-background="new 0 0 135 108" xml:space="preserve">
<path fill="#EFEEEF" opacity="1.000000" stroke="none" 
	d="
M82.000000,109.000000 
	C54.666668,109.000000 27.833334,109.000000 1.000000,109.000000 
	C1.000000,73.000000 1.000000,37.000000 1.000000,1.000000 
	C46.000000,1.000000 91.000000,1.000000 136.000000,1.000000 
	C136.000000,37.000000 136.000000,73.000000 136.000000,109.000000 
	C118.166664,109.000000 100.333336,109.000000 82.000000,109.000000 
M76.507446,77.065559 
	C76.887299,77.080009 77.267159,77.094460 77.750076,77.970978 
	C78.096085,80.529114 77.790939,83.435905 78.932549,85.568047 
	C80.909248,89.259819 89.365280,90.304092 95.049629,88.422325 
	C99.877510,86.824081 100.591797,83.321457 100.093292,78.401169 
	C100.085197,77.992737 100.077110,77.584305 100.930687,77.100014 
	C109.046303,77.043190 110.696274,75.985359 111.749588,69.525154 
	C112.116272,67.276215 112.091347,64.883469 111.782951,62.619373 
	C110.851929,55.784061 108.977959,54.378696 101.646263,54.355339 
	C101.160744,54.213356 100.675232,54.071373 100.108429,53.078606 
	C100.044731,44.440819 98.529610,42.861637 90.093414,42.665237 
	C89.096741,42.642033 88.097855,42.650230 87.101501,42.686069 
	C78.619293,42.991188 77.315933,44.470005 77.996384,53.429928 
	C77.927498,53.771198 77.858612,54.112473 76.946815,54.547714 
	C68.267632,54.710819 65.660835,57.518265 65.895126,66.450050 
	C66.112900,74.752144 68.420189,77.166649 76.507446,77.065559 
M114.570526,36.857376 
	C118.392921,29.704233 117.453926,24.322903 111.117676,19.331045 
	C108.531532,17.293621 105.650627,15.454976 102.629044,14.174118 
	C83.102074,5.896589 62.826717,4.947680 42.520264,9.978500 
	C34.673141,11.922585 26.894295,15.686464 20.179008,20.236763 
	C12.921877,25.154217 13.358027,33.473133 19.840624,39.491268 
	C21.530537,41.060104 23.473684,42.437408 25.491970,43.557800 
	C36.665073,49.760223 48.824135,52.098053 61.453415,52.127457 
	C62.839073,52.130680 64.613747,50.628807 65.557014,49.346245 
	C74.601128,37.049057 90.185669,33.547649 103.159653,41.472084 
	C106.234917,43.350437 108.230659,43.057152 110.530655,40.910011 
	C111.743263,39.778004 112.911598,38.598583 114.570526,36.857376 
M94.860634,100.452286 
	C96.743896,99.801582 98.664810,99.242409 100.504471,98.485703 
	C115.328850,92.388016 118.334145,87.595352 116.382507,72.679367 
	C115.829544,73.694649 115.393921,74.351471 115.094406,75.065392 
	C108.381088,91.067398 93.430740,97.316566 77.049881,91.075577 
	C75.422668,90.455620 73.502464,90.409294 71.720383,90.421013 
	C51.085663,90.556786 31.029003,88.850899 15.185171,73.241013 
	C14.775924,89.195831 17.030071,92.643234 31.837265,98.660393 
	C32.915058,99.098366 34.021252,99.472237 35.129303,99.829140 
	C54.695744,106.131676 74.364937,106.237762 94.860634,100.452286 
M55.720688,63.843704 
	C40.988403,61.378021 26.035807,59.436069 15.540064,46.810757 
	C13.877457,60.507690 15.800151,65.072144 27.572058,70.279747 
	C34.479752,73.335548 42.031288,75.056183 49.419628,76.859451 
	C53.744678,77.915062 58.318325,77.952133 62.792648,78.448784 
	C61.967838,74.062263 60.970764,70.680222 60.793751,67.255791 
	C60.630199,64.091896 58.968597,63.784458 55.720688,63.843704 
z"/>
<path fill="#D72507" opacity="1.000000" stroke="none" 
	d="
M114.335220,37.148972 
	C112.911598,38.598583 111.743263,39.778004 110.530655,40.910011 
	C108.230659,43.057152 106.234917,43.350437 103.159653,41.472084 
	C90.185669,33.547649 74.601128,37.049057 65.557014,49.346245 
	C64.613747,50.628807 62.839073,52.130680 61.453415,52.127457 
	C48.824135,52.098053 36.665073,49.760223 25.491970,43.557800 
	C23.473684,42.437408 21.530537,41.060104 19.840624,39.491268 
	C13.358027,33.473133 12.921877,25.154217 20.179008,20.236763 
	C26.894295,15.686464 34.673141,11.922585 42.520264,9.978500 
	C62.826717,4.947680 83.102074,5.896589 102.629044,14.174118 
	C105.650627,15.454976 108.531532,17.293621 111.117676,19.331045 
	C117.453926,24.322903 118.392921,29.704233 114.335220,37.148972 
M51.161938,17.686014 
	C50.886681,17.842913 50.652206,18.046734 49.917526,18.724125 
	C46.657928,22.861923 46.959476,26.301104 50.877781,29.675867 
	C54.894901,33.135738 57.710934,32.719257 62.700665,27.695015 
	C64.698059,24.338820 66.319756,20.861942 63.293934,17.331106 
	C60.681671,14.282851 57.409595,14.257971 53.407337,16.031265 
	C52.802906,16.524477 52.198471,17.017687 51.161938,17.686014 
M41.647095,30.609510 
	C43.823212,28.584808 46.556744,26.432394 44.039860,23.280344 
	C42.964798,21.933973 40.454784,21.733400 39.241467,21.262415 
	C39.980892,24.546003 40.511551,26.902506 40.237530,29.402191 
	C38.351257,29.080908 36.464989,28.759624 34.740543,28.465906 
	C34.895733,26.797224 35.314075,25.533918 35.052685,24.431829 
	C34.519096,22.182066 33.619656,20.019072 33.631001,17.692400 
	C36.021187,17.885191 38.409969,18.191387 40.802174,18.220974 
	C41.929176,18.234911 43.062740,17.717617 44.193333,17.441038 
	C39.753250,14.459525 35.906162,13.439836 32.224846,18.073858 
	C29.524994,19.835529 29.310915,21.963985 30.782204,24.779259 
	C31.650488,26.440693 31.776777,28.489902 32.537182,31.589233 
	C34.897957,31.370237 37.943504,31.087719 41.647095,30.609510 
M93.896408,25.287956 
	C94.818024,27.387527 95.739639,29.487099 96.759758,31.811064 
	C97.966805,31.811064 99.709015,31.811064 101.566063,31.811064 
	C98.549393,25.857958 95.635208,20.107113 92.458336,13.837863 
	C90.906456,15.659676 89.894501,16.847649 89.464371,17.352604 
	C90.930336,19.953680 92.089828,22.010979 92.509514,24.007244 
	C91.699615,24.136633 90.889709,24.266022 90.079811,24.395409 
	C90.104248,24.600119 90.128685,24.804827 90.153122,25.009537 
	C91.278587,24.910576 92.404045,24.811617 93.896408,25.287956 
M67.591774,15.408398 
	C68.054817,17.111162 68.799232,18.794720 68.917091,20.521049 
	C69.109367,23.337442 68.702812,26.198290 68.947266,29.005693 
	C69.038452,30.052958 70.247147,31.002913 70.946274,31.997236 
	C71.316124,31.012936 71.968521,30.038750 72.004181,29.042492 
	C72.123283,25.714676 71.899178,22.372826 72.065681,19.049334 
	C72.130806,17.749420 72.883087,16.483932 73.374001,15.052326 
	C71.885994,15.052326 70.078796,15.052326 67.591774,15.408398 
M65.259331,38.485622 
	C70.090530,39.446960 70.090530,39.446960 71.944313,36.070789 
	C65.221657,39.416962 59.938866,30.145853 53.115025,34.036221 
	C57.131729,35.486378 60.823994,36.819405 65.259331,38.485622 
z"/>
<path fill="#D72608" opacity="1.000000" stroke="none" 
	d="
M94.492188,100.621353 
	C74.364937,106.237762 54.695744,106.131676 35.129303,99.829140 
	C34.021252,99.472237 32.915058,99.098366 31.837265,98.660393 
	C17.030071,92.643234 14.775924,89.195831 15.186583,73.236359 
	C31.029003,88.850899 51.085663,90.556786 71.720383,90.421013 
	C73.502464,90.409294 75.422668,90.455620 77.049881,91.075577 
	C93.430740,97.316566 108.381088,91.067398 115.094406,75.065392 
	C115.393921,74.351471 115.829544,73.694649 116.382507,72.679367 
	C118.334145,87.595352 115.328850,92.388016 100.504471,98.485703 
	C98.664810,99.242409 96.743896,99.801582 94.492188,100.621353 
z"/>
<path fill="#D72406" opacity="1.000000" stroke="none" 
	d="
M101.948151,54.765362 
	C108.977959,54.378696 110.851929,55.784061 111.782951,62.619373 
	C112.091347,64.883469 112.116272,67.276215 111.749588,69.525154 
	C110.696274,75.985359 109.046303,77.043190 100.046173,77.033577 
	C95.867256,76.967140 92.572861,76.967140 89.278458,76.967140 
	C89.264977,77.482948 89.251495,77.998756 89.238007,78.514565 
	C92.823997,78.678482 96.409981,78.842392 99.995964,79.006310 
	C100.591797,83.321457 99.877510,86.824081 95.049629,88.422325 
	C89.365280,90.304092 80.909248,89.259819 78.932549,85.568047 
	C77.790939,83.435905 78.096085,80.529114 77.817581,77.119797 
	C77.922295,73.459511 77.959496,70.650398 78.063858,67.528717 
	C78.807816,66.814194 79.484619,66.412247 80.239151,66.312973 
	C85.343910,66.410141 90.370941,66.204636 95.561378,65.785065 
	C96.378609,65.047371 97.032425,64.523743 97.873734,64.155540 
	C99.092354,63.416210 100.688026,62.697849 101.034439,61.589157 
	C101.709030,59.430172 101.683632,57.052475 101.948151,54.765362 
z"/>
<path fill="#D62304" opacity="1.000000" stroke="none" 
	d="
M80.161415,66.010292 
	C79.484619,66.412247 78.807816,66.814194 77.746002,67.775024 
	C76.888504,71.211060 76.416023,74.088234 75.943550,76.965401 
	C68.420189,77.166649 66.112900,74.752144 65.895126,66.450050 
	C65.660835,57.518265 68.267632,54.710819 77.815506,54.663803 
	C82.035988,54.779892 85.387787,54.779892 88.739578,54.779892 
	C88.720673,54.156624 88.701759,53.533356 88.682854,52.910088 
	C85.144669,52.910088 81.606491,52.910088 78.068306,52.910088 
	C77.315933,44.470005 78.619293,42.991188 87.101501,42.686069 
	C88.097855,42.650230 89.096741,42.642033 90.093414,42.665237 
	C98.529610,42.861637 100.044731,44.440819 100.043526,53.923927 
	C99.214493,57.846203 98.450363,60.923157 97.686234,64.000114 
	C97.032425,64.523743 96.378609,65.047371 95.271103,65.435066 
	C89.932083,65.536186 85.046753,65.773239 80.161415,66.010292 
z"/>
<path fill="#D72507" opacity="1.000000" stroke="none" 
	d="
M56.154404,63.872879 
	C58.968597,63.784458 60.630199,64.091896 60.793751,67.255791 
	C60.970764,70.680222 61.967838,74.062263 62.792648,78.448784 
	C58.318325,77.952133 53.744678,77.915062 49.419628,76.859451 
	C42.031288,75.056183 34.479752,73.335548 27.572058,70.279747 
	C15.800151,65.072144 13.877457,60.507690 15.540064,46.810757 
	C26.035807,59.436069 40.988403,61.378021 56.154404,63.872879 
z"/>
<path fill="#E8B5AD" opacity="1.000000" stroke="none" 
	d="
M97.873734,64.155540 
	C98.450363,60.923157 99.214493,57.846203 100.084167,54.349319 
	C100.675232,54.071373 101.160744,54.213356 101.797211,54.560349 
	C101.683632,57.052475 101.709030,59.430172 101.034439,61.589157 
	C100.688026,62.697849 99.092354,63.416210 97.873734,64.155540 
z"/>
<path fill="#E8B4AC" opacity="1.000000" stroke="none" 
	d="
M100.044632,78.703735 
	C96.409981,78.842392 92.823997,78.678482 89.238007,78.514565 
	C89.251495,77.998756 89.264977,77.482948 89.278458,76.967140 
	C92.572861,76.967140 95.867256,76.967140 99.615341,77.071503 
	C100.077110,77.584305 100.085197,77.992737 100.044632,78.703735 
z"/>
<path fill="#E6A79C" opacity="1.000000" stroke="none" 
	d="
M78.032349,53.170006 
	C81.606491,52.910088 85.144669,52.910088 88.682854,52.910088 
	C88.701759,53.533356 88.720673,54.156624 88.739578,54.779892 
	C85.387787,54.779892 82.035988,54.779892 78.236961,54.616817 
	C77.858612,54.112473 77.927498,53.771198 78.032349,53.170006 
z"/>
<path fill="#E8BAB3" opacity="1.000000" stroke="none" 
	d="
M76.225494,77.015480 
	C76.416023,74.088234 76.888504,71.211060 77.678848,68.087593 
	C77.959496,70.650398 77.922295,73.459511 77.766052,76.688766 
	C77.267159,77.094460 76.887299,77.080009 76.225494,77.015480 
z"/>
<path fill="#ECDBDA" opacity="1.000000" stroke="none" 
	d="
M93.249329,24.068275 
	C92.089828,22.010979 90.930336,19.953680 89.464371,17.352604 
	C89.894501,16.847649 90.906456,15.659676 92.458336,13.837863 
	C95.635208,20.107113 98.549393,25.857958 101.566063,31.811064 
	C99.709015,31.811064 97.966805,31.811064 96.759758,31.811064 
	C95.739639,29.487099 94.818024,27.387527 93.707016,24.811390 
	C93.517632,24.334826 93.249329,24.068275 93.249329,24.068275 
z"/>
<path fill="#ECD4D1" opacity="1.000000" stroke="none" 
	d="
M62.063988,28.021460 
	C57.710934,32.719257 54.894901,33.135738 50.877781,29.675867 
	C46.959476,26.301104 46.657928,22.861923 50.341625,18.721375 
	C50.882347,18.847433 50.998970,18.976244 51.060349,19.507101 
	C50.947784,27.046101 54.986137,30.337709 61.188084,27.982956 
	C61.674725,28.003660 61.869358,28.012560 62.063988,28.021460 
z"/>
<path fill="#ECD9D7" opacity="1.000000" stroke="none" 
	d="
M32.870911,17.820337 
	C33.619656,20.019072 34.519096,22.182066 35.052685,24.431829 
	C35.314075,25.533918 34.895733,26.797224 34.740543,28.465906 
	C36.464989,28.759624 38.351257,29.080908 40.619556,29.587801 
	C40.997402,30.117340 40.993225,30.461269 40.989048,30.805199 
	C37.943504,31.087719 34.897957,31.370237 32.537182,31.589233 
	C31.776777,28.489902 31.650488,26.440693 30.782204,24.779259 
	C29.310915,21.963985 29.524994,19.835529 32.576008,17.955719 
	C32.927170,17.837580 32.870911,17.820337 32.870911,17.820337 
z"/>
<path fill="#ECDAD8" opacity="1.000000" stroke="none" 
	d="
M62.382324,27.858238 
	C61.869358,28.012560 61.674725,28.003660 61.246574,27.606834 
	C62.688339,20.241470 61.185207,18.153305 54.006012,17.236160 
	C54.001522,16.673950 53.998238,16.352638 54.001583,16.031258 
	C57.409595,14.257971 60.681671,14.282851 63.293934,17.331106 
	C66.319756,20.861942 64.698059,24.338820 62.382324,27.858238 
z"/>
<path fill="#EEE9EA" opacity="1.000000" stroke="none" 
	d="
M67.931686,15.230362 
	C70.078796,15.052326 71.885994,15.052326 73.374001,15.052326 
	C72.883087,16.483932 72.130806,17.749420 72.065681,19.049334 
	C71.899178,22.372826 72.123283,25.714676 72.004181,29.042492 
	C71.968521,30.038750 71.316124,31.012936 70.946274,31.997238 
	C70.247147,31.002913 69.038452,30.052958 68.947266,29.005693 
	C68.702812,26.198290 69.109367,23.337442 68.917091,20.521049 
	C68.799232,18.794720 68.054817,17.111162 67.931686,15.230362 
z"/>
<path fill="#EBD1CE" opacity="1.000000" stroke="none" 
	d="
M64.887794,38.319023 
	C60.823994,36.819405 57.131729,35.486378 53.115025,34.036221 
	C59.938866,30.145853 65.221657,39.416962 71.944313,36.070789 
	C70.090530,39.446960 70.090530,39.446960 64.887794,38.319023 
z"/>
<path fill="#EBD2CF" opacity="1.000000" stroke="none" 
	d="
M41.318069,30.707355 
	C40.993225,30.461269 40.997402,30.117340 41.021896,29.516211 
	C40.511551,26.902506 39.980892,24.546003 39.241467,21.262415 
	C40.454784,21.733400 42.964798,21.933973 44.039860,23.280344 
	C46.556744,26.432394 43.823212,28.584808 41.318069,30.707355 
z"/>
<path fill="#EBD1CE" opacity="1.000000" stroke="none" 
	d="
M32.937817,17.865007 
	C35.906162,13.439836 39.753250,14.459525 44.193333,17.441038 
	C43.062740,17.717617 41.929176,18.234911 40.802174,18.220974 
	C38.409969,18.191387 36.021187,17.885191 33.250954,17.756369 
	C32.870911,17.820337 32.927170,17.837580 32.937817,17.865007 
z"/>
<path fill="#DA4228" opacity="1.000000" stroke="none" 
	d="
M92.879425,24.037760 
	C93.249329,24.068275 93.517632,24.334826 93.523575,24.523743 
	C92.404045,24.811617 91.278587,24.910576 90.153122,25.009537 
	C90.128685,24.804827 90.104248,24.600119 90.079811,24.395409 
	C90.889709,24.266022 91.699615,24.136633 92.879425,24.037760 
z"/>
<path fill="#ECD4D1" opacity="1.000000" stroke="none" 
	d="
M53.704460,16.031261 
	C53.998238,16.352638 54.001522,16.673950 53.700119,17.387894 
	C52.945541,17.875221 52.502281,17.969852 51.942093,17.926659 
	C51.825169,17.788834 51.594040,17.510897 51.594040,17.510897 
	C52.198471,17.017687 52.802906,16.524477 53.704460,16.031261 
z"/>
<path fill="#ECD4D1" opacity="1.000000" stroke="none" 
	d="
M50.612122,18.508049 
	C50.652206,18.046734 50.886681,17.842913 51.377991,17.598455 
	C51.594040,17.510897 51.825169,17.788834 51.894295,18.180641 
	C51.680813,18.749983 51.398205,18.927519 51.115597,19.105055 
	C50.998970,18.976244 50.882347,18.847433 50.612122,18.508049 
z"/>
<path fill="#E7ACA3" opacity="1.000000" stroke="none" 
	d="
M80.239151,66.312973 
	C85.046753,65.773239 89.932083,65.536186 95.107697,65.649132 
	C90.370941,66.204636 85.343910,66.410141 80.239151,66.312973 
z"/>
<path fill="#D72A0C" opacity="1.000000" stroke="none" 
	d="
M51.060349,19.507101 
	C51.398205,18.927519 51.680813,18.749983 52.011223,18.318466 
	C52.502281,17.969852 52.945541,17.875221 53.694691,17.628857 
	C61.185207,18.153305 62.688339,20.241470 60.954563,27.595034 
	C54.986137,30.337709 50.947784,27.046101 51.060349,19.507101 
z"/>
</svg>